<?xml version="1.0" encoding="iso-8859-1"?>
<!-- Generator: Adobe Illustrator 19.0.0, SVG Export Plug-In . SVG Version: 6.00 Build 0)  -->
<svg version="1.1" id="Layer_1" xmlns="http://www.w3.org/2000/svg" xmlns:xlink="http://www.w3.org/1999/xlink" x="0px" y="0px"
	 viewBox="0 0 512 512" style="enable-background:new 0 0 512 512;" xml:space="preserve">
<path style="fill:#F5F5F5;" d="M256.22,432.78L284,390.408V135.952c-0.204,0.008-0.408,0.048-0.608,0.048H236v265.988L256.22,432.78
	z M256,410.872c-6.052,0-10.956-4.904-10.956-10.956S249.948,388.96,256,388.96s10.956,4.904,10.956,10.956
	S262.052,410.872,256,410.872z M256,169.824c6.052,0,10.956,4.904,10.956,10.956s-4.904,10.956-10.956,10.956
	s-10.956-4.904-10.956-10.956S249.948,169.824,256,169.824z M256,224.612c6.052,0,10.956,4.904,10.956,10.956
	c0,6.052-4.904,10.956-10.956,10.956s-10.956-4.904-10.956-10.956S249.948,224.612,256,224.612z M256,279.392
	c6.052,0,10.956,4.904,10.956,10.956s-4.904,10.956-10.956,10.956s-10.956-4.904-10.956-10.956S249.948,279.392,256,279.392z
	 M256,334.172c6.052,0,10.956,4.904,10.956,10.956s-4.904,10.956-10.956,10.956s-10.956-4.904-10.956-10.956
	S249.948,334.172,256,334.172z"/>
<path style="fill:#CCCCCC;" d="M288,135.244c4.348-1.42,7.992-4.76,7.992-9.244v-16.428c0,9.956,72.084,34.276,98.348,38.344
	c11.136,1.736,21.652-6.008,21.652-15.976V84H368v4H140v-4H95.992v47.936c0.008,9.972,10.524,17.708,21.66,15.98
	C143.908,143.848,216,119.528,216,109.572V126c0,5.824,6.148,9.696,12,9.952c0.204,0.008,0.408,0.048,0.608,0.048H236h47.392
	c0.2,0,0.404-0.04,0.608-0.048v254.456l-27.78,42.372L236,401.988l-8-12.184L44.988,111.088c-1.708,2.484-3.348,5.016-4.972,7.56
	L192.98,345.496l62.692,92.548l216.196-319.588c-1.568-2.452-3.148-4.896-4.792-7.292L288,384.304V135.244z"/>
<path style="fill:#FFFFFF;" d="M236,136h-7.392c-0.2,0-0.404-0.04-0.608-0.048v253.852l8,12.184V136z"/>
<g>
	<path style="fill:#E6E6E6;" d="M256,28l39.28-24.996C282.476,1.032,269.36,0,256,0s-26.476,1.032-39.28,3.004L256,28z"/>
	<path style="fill:#E6E6E6;" d="M256,28h-44V3.844c-25.496,4.42-49.684,12.6-72,23.968V40h-21.328
		c-29.076,18.524-54.168,42.724-73.684,71.088L228,389.804V135.952c-5.852-0.256-12-4.128-12-9.952v-16.428
		c0,9.956-72.092,34.276-98.348,38.344c-11.136,1.728-21.652-6.008-21.66-15.98V84H140v4h228v-4h47.992v47.94
		c0,9.968-10.516,17.712-21.652,15.976c-26.264-4.068-98.348-28.388-98.348-38.344V126c0,4.484-3.644,7.824-7.992,9.244v249.06
		l179.068-273.14c-19.52-28.396-44.636-52.62-73.74-71.164H368V25.764C346.812,15.436,323.972,8,300,3.844V28H256z"/>
</g>
<g>
	<path style="fill:#FFFFFF;" d="M256,28L216.72,3.004c-1.588,0.244-3.144,0.568-4.72,0.84V28H256z"/>
	<path style="fill:#FFFFFF;" d="M300,28V3.844c-1.576-0.272-3.132-0.6-4.72-0.844L256,28H300z"/>
</g>
<g>
	<path style="fill:#242424;" d="M29.556,136.596C10.716,172.252,0,212.868,0,256c0,136.008,106.076,247.184,240,255.452v-64.208
		L29.556,136.596z"/>
	<path style="fill:#242424;" d="M40.016,118.648c-0.112,0.176-0.228,0.352-0.34,0.532L192.98,345.496L40.016,118.648z"/>
	<path style="fill:#242424;" d="M255.668,438.044l0.332,0.492L255.008,440H256v72c126.068,0,230.776-91.156,252-211.132v-89.736
		c-5.072-28.664-14.884-55.676-28.648-80.2l-11.032-6.54l3.628-5.8c-0.028-0.044-0.06-0.092-0.088-0.136L255.668,438.044z"/>
</g>
<g>
	<path style="fill:#1A1A1A;" d="M256,440h-0.992l0.992-1.464l-0.332-0.492l-62.692-92.548L39.676,119.18
		c-3.588,5.664-6.972,11.464-10.12,17.416L240,447.244v64.208c5.296,0.328,10.62,0.548,16,0.548V440z"/>
	<path style="fill:#1A1A1A;" d="M512,256c0-15.316-1.42-30.292-4-44.868v89.736C510.58,286.292,512,271.316,512,256z"/>
	<path style="fill:#1A1A1A;" d="M479.352,130.932c-2.352-4.192-4.828-8.3-7.404-12.34l-3.628,5.8L479.352,130.932z"/>
</g>
<g>
	<circle style="fill:#242424;" cx="256" cy="180.8" r="10.956"/>
	<circle style="fill:#242424;" cx="256" cy="235.568" r="10.956"/>
	<circle style="fill:#242424;" cx="256" cy="290.36" r="10.956"/>
	<circle style="fill:#242424;" cx="256" cy="345.12" r="10.956"/>
	<circle style="fill:#242424;" cx="256" cy="399.92" r="10.956"/>
	<path style="fill:#242424;" d="M216,98.608c0,9.96-72.084,34.28-98.348,38.348C106.516,138.692,96,130.944,96,120.98V32.872
		c0-9.964,10.516-18.176,21.652-16.432C143.908,20.512,216,44.704,216,54.648V98.608z"/>
</g>
<path style="fill:#1A1A1A;" d="M118.22,16.428c-4.28-0.664-7.944,0.156-11.528,1.96C137.728,25.508,196,45.756,196,54.644v43.964
	c0,8.916-58.092,29.328-89.084,36.428c3.624,1.784,7.016,2.592,11.368,1.916c26.256-4.068,97.724-28.388,97.724-38.348v-43.96
	C216,44.704,144.476,20.508,118.22,16.428z"/>
<path style="fill:#242424;" d="M296,98.608c0,9.96,72.084,34.28,98.348,38.348C405.484,138.692,416,130.944,416,120.98V32.872
	c0-9.964-10.516-18.176-21.652-16.432C368.092,20.512,296,44.704,296,54.648V98.608z"/>
<path style="fill:#1A1A1A;" d="M394.348,16.428c-1.768,0.272-3.76,0.648-5.912,1.092C395.092,20.084,400,26.064,400,32.868v88.108
	c0,6.752-4.82,12.46-11.392,14.92c2.084,0.424,4.016,0.784,5.74,1.056c11.136,1.736,21.652-6.008,21.652-15.976V32.868
	C416,22.908,405.484,14.696,394.348,16.428z"/>
<path style="fill:#242424;" d="M296,117.044c0,6.048-4.908,10.956-10.952,10.956H226.96c-6.056,0-10.956-4.908-10.956-10.956V38.96
	c0-6.056,4.912-10.956,10.956-10.956h58.084c6.048,0,10.956,4.912,10.956,10.956V117.044z"/>
<path style="fill:#1A1A1A;" d="M285.048,28h-16C275.092,28,280,32.908,280,38.956v78.084c0,6.056-4.908,10.956-10.952,10.956h16
	c6.048,0,10.952-4.912,10.952-10.956V38.956C296,32.908,291.092,28,285.048,28z"/>
<g>
</g>
<g>
</g>
<g>
</g>
<g>
</g>
<g>
</g>
<g>
</g>
<g>
</g>
<g>
</g>
<g>
</g>
<g>
</g>
<g>
</g>
<g>
</g>
<g>
</g>
<g>
</g>
<g>
</g>
</svg>
